<svg width="1584" height="396" viewBox="0 0 1584 396" fill="none" xmlns="http://www.w3.org/2000/svg">
<rect width="1584" height="396" fill="#F5F5F5"/>
<g id="Awesome banner" clip-path="url(#clip0_0_1)">
<rect width="1584" height="396" fill="url(#paint0_linear_0_1)"/>
<ellipse id="Ellipse 2" cx="323" cy="64" rx="285" ry="288" fill="url(#paint1_linear_0_1)" fill-opacity="0.1"/>
<g id="copyright">
<path d="M75.95 334.52L72.30 334.52L72.30 311.16L77.20 311.16L83.70 330.04Q83.60 329.02 83.50 327.62Q83.41 326.23 83.33 324.79Q83.25 323.35 83.25 322.23L83.25 311.16L86.90 311.16L86.90 334.52L82 334.52L75.57 315.64Q75.63 316.57 75.73 317.88Q75.82 319.19 75.89 320.57Q75.95 321.94 75.95 323.10L75.95 334.52M98.80 334.84Q96.46 334.84 94.67 333.96Q92.88 333.08 91.89 331.53Q90.90 329.98 90.90 327.93Q90.90 325.78 92.13 324.18Q93.36 322.58 95.34 322.17L95.34 322.10Q93.65 321.75 92.61 320.38Q91.57 319 91.57 317.11Q91.57 315.26 92.48 313.85Q93.39 312.44 95.02 311.64Q96.66 310.84 98.80 310.84Q100.94 310.84 102.59 311.64Q104.24 312.44 105.15 313.85Q106.06 315.26 106.06 317.11Q106.06 319 105.01 320.38Q103.95 321.75 102.26 322.10L102.26 322.17Q104.24 322.58 105.47 324.18Q106.70 325.78 106.70 327.93Q106.70 329.98 105.71 331.53Q104.72 333.08 102.93 333.96Q101.14 334.84 98.80 334.84M98.80 320.73Q100.30 320.73 101.23 319.82Q102.16 318.90 102.16 317.46Q102.16 315.99 101.23 315.08Q100.30 314.17 98.80 314.17Q97.30 314.17 96.37 315.08Q95.44 315.99 95.44 317.46Q95.44 318.90 96.37 319.82Q97.30 320.73 98.80 320.73M98.80 331.45Q100.56 331.45 101.68 330.42Q102.80 329.40 102.80 327.74Q102.80 326.04 101.68 325Q100.56 323.96 98.80 323.96Q97.04 323.96 95.92 325Q94.80 326.04 94.80 327.74Q94.80 329.40 95.92 330.42Q97.04 331.45 98.80 331.45M114.35 334.52L110.70 334.52L110.70 311.16L115.60 311.16L122.10 330.04Q122 329.02 121.90 327.62Q121.81 326.23 121.73 324.79Q121.65 323.35 121.65 322.23L121.65 311.16L125.30 311.16L125.30 334.52L120.40 334.52L113.97 315.64Q114.03 316.57 114.13 317.88Q114.22 319.19 114.29 320.57Q114.35 321.94 114.35 323.10" fill="white" fill-opacity="0.9"/>
<path d="M161.48 325.24L151.24 325.24L151.24 322.68L161.48 322.68" fill="white" fill-opacity="0.9"/>
<path d="M195.02 334.84Q191.82 334.84 189.96 333.05Q188.11 331.26 188.11 328.12L188.11 317.56Q188.11 314.42 189.96 312.63Q191.82 310.84 195.02 310.84Q198.15 310.84 200.01 312.65Q201.87 314.46 201.87 317.56L198.99 317.56Q198.99 315.58 197.95 314.50Q196.91 313.43 195.02 313.43Q193.13 313.43 192.06 314.50Q190.99 315.58 190.99 317.56L190.99 328.12Q190.99 330.10 192.06 331.18Q193.13 332.25 195.02 332.25Q196.91 332.25 197.95 331.18Q198.99 330.10 198.99 328.12L201.87 328.12Q201.87 331.22 200.01 333.03Q198.15 334.84 195.02 334.84" fill="white" fill-opacity="0.9"/>
<path d="M213.96 334.84Q210.83 334.84 209 333.02Q207.18 331.19 207.18 327.80L207.18 317.88Q207.18 314.49 209 312.66Q210.83 310.84 213.96 310.84Q217.10 310.84 218.92 312.66Q220.75 314.49 220.75 317.85L220.75 327.80Q220.75 331.19 218.92 333.02Q217.10 334.84 213.96 334.84M213.96 332.25Q215.85 332.25 216.86 331.18Q217.87 330.10 217.87 328.12L217.87 317.56Q217.87 315.58 216.86 314.50Q215.85 313.43 213.96 313.43Q212.11 313.43 211.08 314.50Q210.06 315.58 210.06 317.56L210.06 328.12Q210.06 330.10 211.08 331.18Q212.11 332.25 213.96 332.25" fill="white" fill-opacity="0.9"/>
<path d="M228.65 334.52L225.87 334.52L225.87 311.16L230.12 311.16L233.10 321.27L236.20 311.16L240.46 311.16L240.46 334.52L237.67 334.52L237.67 323.48Q237.67 321.91 237.72 319.88Q237.77 317.85 237.87 315.77Q237.96 313.69 238.09 312.02L234.31 324.09L231.82 324.09L228.20 312.31Q228.46 314.68 228.55 317.50Q228.65 320.31 228.65 323.48" fill="white" fill-opacity="0.9"/>
<path d="M247.85 334.52L245.07 334.52L245.07 311.16L249.32 311.16L252.30 321.27L255.40 311.16L259.66 311.16L259.66 334.52L256.87 334.52L256.87 323.48Q256.87 321.91 256.92 319.88Q256.97 317.85 257.07 315.77Q257.16 313.69 257.29 312.02L253.51 324.09L251.02 324.09L247.40 312.31Q247.66 314.68 247.75 317.50Q247.85 320.31 247.85 323.48" fill="white" fill-opacity="0.9"/>
<path d="M271.56 334.84Q268.30 334.84 266.57 333.03Q264.84 331.22 264.84 328.12L264.84 311.16L267.72 311.16L267.72 328.12Q267.72 330.04 268.67 331.16Q269.61 332.28 271.56 332.28Q273.48 332.28 274.44 331.16Q275.40 330.04 275.40 328.12L275.40 311.16L278.28 311.16L278.28 328.12Q278.28 331.26 276.57 333.05Q274.86 334.84 271.56 334.84" fill="white" fill-opacity="0.9"/>
<path d="M286.83 334.52L284.04 334.52L284.04 311.16L287.88 311.16L295.02 331.16Q294.95 330.36 294.87 329.19Q294.79 328.02 294.75 326.73Q294.70 325.43 294.70 324.28L294.70 311.16L297.48 311.16L297.48 334.52L293.64 334.52L286.54 314.52Q286.60 315.29 286.67 316.46Q286.73 317.62 286.78 318.92Q286.83 320.22 286.83 321.40" fill="white" fill-opacity="0.9"/>
<path d="M316.20 334.52L303.72 334.52L303.72 331.90L308.49 331.90L308.49 313.78L303.72 313.78L303.72 311.16L316.20 311.16L316.20 313.78L311.43 313.78L311.43 331.90L316.20 331.90" fill="white" fill-opacity="0.9"/>
<path d="M330.60 334.52L327.72 334.52L327.72 313.78L321.32 313.78L321.32 311.16L337 311.16L337 313.78L330.60 313.78" fill="white" fill-opacity="0.9"/>
<path d="M349.80 334.52L346.92 334.52L346.92 325.78L339.88 311.16L342.95 311.16L347.50 320.76Q347.88 321.56 348.11 322.12Q348.33 322.68 348.39 322.94Q348.46 322.68 348.70 322.12Q348.94 321.56 349.32 320.76L353.87 311.16L356.84 311.16L349.80 325.78" fill="white" fill-opacity="0.9"/>
<path d="M382.83 334.52L380.04 334.52L380.04 311.16L383.88 311.16L391.02 331.16Q390.95 330.36 390.87 329.19Q390.79 328.02 390.75 326.73Q390.70 325.43 390.70 324.28L390.70 311.16L393.48 311.16L393.48 334.52L389.64 334.52L382.54 314.52Q382.60 315.29 382.67 316.46Q382.73 317.62 382.78 318.92Q382.83 320.22 382.83 321.40" fill="white" fill-opacity="0.9"/>
<path d="M405.96 334.84Q402.83 334.84 401 333.02Q399.18 331.19 399.18 327.80L399.18 317.88Q399.18 314.49 401 312.66Q402.83 310.84 405.96 310.84Q409.10 310.84 410.92 312.66Q412.75 314.49 412.75 317.85L412.75 327.80Q412.75 331.19 410.92 333.02Q409.10 334.84 405.96 334.84M405.96 332.25Q407.85 332.25 408.86 331.18Q409.87 330.10 409.87 328.12L409.87 317.56Q409.87 315.58 408.86 314.50Q407.85 313.43 405.96 313.43Q404.11 313.43 403.08 314.50Q402.06 315.58 402.06 317.56L402.06 328.12Q402.06 330.10 403.08 331.18Q404.11 332.25 405.96 332.25" fill="white" fill-opacity="0.9"/>
<path d="M424.55 334.52L418.51 334.52L418.51 311.16L424.55 311.16Q426.83 311.16 428.47 312.02Q430.12 312.89 431.03 314.46Q431.95 316.02 431.95 318.17L431.95 327.48Q431.95 329.62 431.03 331.21Q430.12 332.79 428.47 333.66Q426.83 334.52 424.55 334.52M421.39 313.72L421.39 331.96L424.55 331.96Q426.67 331.96 427.87 330.78Q429.07 329.59 429.07 327.48L429.07 318.17Q429.07 316.09 427.87 314.90Q426.67 313.72 424.55 313.72" fill="white" fill-opacity="0.9"/>
<path d="M451.40 334.52L437.96 334.52L437.96 311.16L451.40 311.16L451.40 313.78L440.81 313.78L440.81 321.02L450.28 321.02L450.28 323.58L440.81 323.58L440.81 331.90L451.40 331.90" fill="white" fill-opacity="0.9"/>
<path d="M463.69 334.84Q460.30 334.84 458.28 333.05Q456.27 331.26 456.27 328.12L459.15 328.12Q459.15 330.07 460.39 331.18Q461.64 332.28 463.69 332.28Q465.67 332.28 466.86 331.13Q468.04 329.98 468.04 328.12Q468.04 326.71 467.29 325.67Q466.54 324.63 465.13 324.25L461.58 323.26Q459.37 322.62 458.11 320.97Q456.84 319.32 456.84 317.08Q456.84 315.22 457.67 313.82Q458.51 312.41 460.01 311.62Q461.51 310.84 463.47 310.84Q465.45 310.84 466.97 311.62Q468.49 312.41 469.35 313.80Q470.22 315.19 470.22 317.02L467.34 317.02Q467.34 315.42 466.25 314.41Q465.16 313.40 463.47 313.40Q461.77 313.40 460.71 314.41Q459.66 315.42 459.66 317.02Q459.66 318.30 460.35 319.21Q461.03 320.12 462.28 320.47L465.93 321.50Q468.27 322.14 469.56 323.91Q470.86 325.69 470.86 328.12Q470.86 331.19 468.91 333.02Q466.95 334.84 463.69 334.84" fill="white" fill-opacity="0.9"/>
</g>
<path d="M78.28 197.64L76.12 197.64L76.12 182.09L71.32 182.09L71.32 180.12L83.08 180.12L83.08 182.09L78.28 182.09" fill="white" fill-opacity="0.7"/>
<path d="M90.45 197.88Q88.41 197.88 87.21 196.74Q86.01 195.60 86.01 193.75Q86.01 192.53 86.56 191.62Q87.11 190.70 88.10 190.19Q89.08 189.67 90.35 189.67L94.43 189.67L94.43 188.64Q94.43 186.07 91.62 186.07Q90.38 186.07 89.61 186.53Q88.84 186.98 88.79 187.80L86.63 187.80Q86.75 186.24 88.08 185.22Q89.42 184.20 91.62 184.20Q94.02 184.20 95.31 185.35Q96.59 186.50 96.59 188.57L96.59 197.64L94.46 197.64L94.46 195.24L94.41 195.24Q94.22 196.46 93.18 197.17Q92.15 197.88 90.45 197.88M90.98 196.06Q92.56 196.06 93.50 195.29Q94.43 194.52 94.43 193.20L94.43 191.35L90.59 191.35Q89.54 191.35 88.88 191.99Q88.22 192.62 88.22 193.68Q88.22 194.78 88.95 195.42Q89.68 196.06 90.98 196.06" fill="white" fill-opacity="0.7"/>
<path d="M111.16 197.64L107.32 197.64Q105.69 197.64 104.70 196.69Q103.72 195.74 103.72 194.16L103.72 186.41L99.93 186.41L99.93 184.44L103.72 184.44L103.72 180.72L105.88 180.72L105.88 184.44L111.28 184.44L111.28 186.41L105.88 186.41L105.88 194.16Q105.88 194.83 106.28 195.25Q106.67 195.67 107.32 195.67L111.16 195.67" fill="white" fill-opacity="0.7"/>
<path d="M119.25 197.88Q117.21 197.88 116.01 196.74Q114.81 195.60 114.81 193.75Q114.81 192.53 115.36 191.62Q115.91 190.70 116.90 190.19Q117.88 189.67 119.15 189.67L123.23 189.67L123.23 188.64Q123.23 186.07 120.42 186.07Q119.18 186.07 118.41 186.53Q117.64 186.98 117.59 187.80L115.43 187.80Q115.55 186.24 116.88 185.22Q118.22 184.20 120.42 184.20Q122.82 184.20 124.11 185.35Q125.39 186.50 125.39 188.57L125.39 197.64L123.26 197.64L123.26 195.24L123.21 195.24Q123.02 196.46 121.98 197.17Q120.95 197.88 119.25 197.88M119.78 196.06Q121.36 196.06 122.30 195.29Q123.23 194.52 123.23 193.20L123.23 191.35L119.39 191.35Q118.34 191.35 117.68 191.99Q117.02 192.62 117.02 193.68Q117.02 194.78 117.75 195.42Q118.48 196.06 119.78 196.06" fill="white" fill-opacity="0.7"/>
<path d="M145.41 197.64L143.20 197.64L147.76 180.12L150.66 180.12L155.20 197.64L153.02 197.64L151.86 192.98L146.56 192.98L145.41 197.64M148.34 185.74L146.99 191.16L151.41 191.16L150.06 185.76Q149.68 184.22 149.46 183.19Q149.25 182.16 149.20 181.85Q149.15 182.16 148.94 183.19Q148.72 184.22 148.34 185.74" fill="white" fill-opacity="0.7"/>
<path d="M168.28 197.64L158.92 197.64L158.92 195.67L162.50 195.67L162.50 182.09L158.92 182.09L158.92 180.12L168.28 180.12L168.28 182.09L164.70 182.09L164.70 195.67L168.28 195.67" fill="white" fill-opacity="0.7"/>
<path d="M174.21 197.64LNaN 197.64L176.56 180.12L179.46 180.12LNaN 197.64L181.82 197.64L180.66 192.98L175.36 192.98L174.21 197.64M177.14 185.74L175.79 191.16L180.21 191.16L178.86 185.76Q178.48 184.22 178.26 183.19Q178.05 182.16 NaN 181.85Q177.95 182.16 177.74 183.19Q177.52 184.22 177.14 185.74" fill="white" fill-opacity="0.7"/>
<path d="M212.80 197.64L202.72 197.64L202.72 180.12L204.88 180.12L204.88 195.67L212.80 195.67" fill="white" fill-opacity="0.7"/>
<path d="M227.32 197.64L216.04 197.64L216.04 195.67L220.72 195.67L220.72 186.41L216.52 186.41L216.52 184.44L222.88 184.44L222.88 195.67L227.32 195.67L227.32 197.64M221.56 182.06Q220.77 182.06 220.31 181.66Q219.86 181.25 219.86 180.55Q219.86 179.83 220.31 179.41Q220.77 178.99 221.56 178.99Q222.35 178.99 222.81 179.41Q223.26 179.83 223.26 180.55Q223.26 181.25 222.81 181.66Q222.35 182.06 221.56 182.06" fill="white" fill-opacity="0.7"/>
<path d="M235.72 197.64L233.56 197.64L233.56 188.21L229.72 188.21L229.72 186.24L233.56 186.24L233.56 183.48Q233.56 181.92 234.54 181.02Q235.53 180.12 237.26 180.12L241.12 180.12L241.12 182.09L237.26 182.09Q235.72 182.09 235.72 183.48L235.72 186.24L241.12 186.24L241.12 188.21L235.72 188.21" fill="white" fill-opacity="0.7"/>
<path d="MNaN 197.88Q247.67 197.88 246.24 196.48Q244.82 195.07 244.82 192.60L244.82 189.48Q244.82 187.01 246.24 185.60Q247.67 184.20 NaN 184.20Q251.56 184.20 252.72 184.82Q253.89 185.45 254.54 186.58Q255.18 187.70 255.18 189.24L255.18 191.59L246.93 191.59L246.93 192.84Q246.93 194.30 247.77 195.16Q248.61 196.01 NaN 196.01Q251.20 196.01 251.98 195.54Q252.76 195.07 252.93 194.28L255.09 194.28Q254.87 195.94 253.48 196.91Q252.09 197.88 NaN 197.88M246.93 189.24L246.93 189.91L253.07 189.91L253.07 189.24Q253.07 187.68 252.27 186.83Q251.46 185.98 NaN 185.98Q248.54 185.98 247.73 186.83Q246.93 187.68 246.93 189.24" fill="white" fill-opacity="0.7"/>
<path d="M283.48 197.64L274.12 197.64L274.12 195.67L277.70 195.67L277.70 182.09L274.12 182.09L274.12 180.12L283.48 180.12L283.48 182.09L279.90 182.09L279.90 195.67L283.48 195.67" fill="white" fill-opacity="0.7"/>
<path d="M290.37 197.64L288.21 197.64L288.21 184.44L290.37 184.44L290.37 186.96L290.39 186.96Q290.56 185.64 291.47 184.92Q292.38 184.20 293.90 184.20Q295.89 184.20 297.06 185.42Q298.24 186.65 298.24 188.76L298.24 197.64L296.08 197.64L296.08 189.14Q296.08 187.63 295.32 186.83Q294.57 186.02 293.27 186.02Q291.93 186.02 291.15 186.86Q290.37 187.70 290.37 189.24" fill="white" fill-opacity="0.7"/>
<path d="M308.13 197.83L307.07 197.83Q304.86 197.83 303.65 196.84Q302.44 195.84 302.44 194.02L304.60 194.02Q304.60 194.93 305.25 195.44Q305.90 195.96 307.07 195.96L308.13 195.96Q309.33 195.96 309.99 195.43Q310.65 194.90 310.65 193.94Q310.65 192.24 309.09 192.02L305.44 191.50Q304.10 191.30 303.35 190.38Q302.61 189.46 302.61 187.94Q302.61 186.22 303.80 185.23Q304.98 184.25 307.07 184.25L308.13 184.25Q310.05 184.25 311.26 185.20Q312.47 186.14 312.57 187.68L310.38 187.68Q310.34 186.98 309.72 186.53Q309.11 186.07 308.13 186.07L307.07 186.07Q305.97 186.07 305.34 186.58Q304.72 187.08 304.72 187.94Q304.72 189.34 305.99 189.53L309.40 190.01Q312.76 190.49 312.76 193.94Q312.76 195.79 311.55 196.81Q310.34 197.83 308.13 197.83" fill="white" fill-opacity="0.7"/>
<path d="M321.98 197.88Q319.70 197.88 318.33 196.52Q316.96 195.17 316.96 192.84L316.96 184.44L319.12 184.44L319.12 192.84Q319.12 194.28 319.89 195.13Q320.66 195.98 321.98 195.98Q323.32 195.98 324.10 195.13Q324.88 194.28 324.88 192.84L324.88 184.44L327.04 184.44L327.04 192.84Q327.04 195.17 325.65 196.52Q324.26 197.88 321.98 197.88" fill="white" fill-opacity="0.7"/>
<path d="M334.05 197.64L331.89 197.64L331.89 184.44L334.05 184.44L334.05 186.96L334.10 186.96Q334.26 185.69 335.18 184.94Q336.09 184.20 337.62 184.20Q339.69 184.20 340.80 185.44Q341.92 186.67 341.92 188.95L341.92 190.08L339.76 190.08L339.76 188.95Q339.76 186.07 336.95 186.07Q335.54 186.07 334.79 186.89Q334.05 187.70 334.05 189.24" fill="white" fill-opacity="0.7"/>
<path d="M349.65 197.88Q347.61 197.88 346.41 196.74Q345.21 195.60 345.21 193.75Q345.21 192.53 345.76 191.62Q346.31 190.70 347.30 190.19Q348.28 189.67 349.55 189.67L353.63 189.67L353.63 188.64Q353.63 186.07 350.82 186.07Q349.58 186.07 348.81 186.53Q348.04 186.98 347.99 187.80L345.83 187.80Q345.95 186.24 347.28 185.22Q348.62 184.20 350.82 184.20Q353.22 184.20 354.51 185.35Q355.79 186.50 355.79 188.57L355.79 197.64L353.66 197.64L353.66 195.24L353.61 195.24Q353.42 196.46 352.38 197.17Q351.35 197.88 349.65 197.88M350.18 196.06Q351.76 196.06 352.70 195.29Q353.63 194.52 353.63 193.20L353.63 191.35L349.79 191.35Q348.74 191.35 348.08 191.99Q347.42 192.62 347.42 193.68Q347.42 194.78 348.15 195.42Q348.88 196.06 350.18 196.06" fill="white" fill-opacity="0.7"/>
<path d="M362.37 197.64L360.21 197.64L360.21 184.44L362.37 184.44L362.37 186.96L362.39 186.96Q362.56 185.64 363.47 184.92Q364.38 184.20 365.90 184.20Q367.89 184.20 369.06 185.42Q370.24 186.65 370.24 188.76L370.24 197.64L368.08 197.64L368.08 189.14Q368.08 187.63 367.32 186.83Q366.57 186.02 365.27 186.02Q363.93 186.02 363.15 186.86Q362.37 187.70 362.37 189.24" fill="white" fill-opacity="0.7"/>
<path d="M379.79 197.88Q377.39 197.88 375.95 196.54Q374.51 195.19 374.51 192.84L374.51 189.24Q374.51 186.89 375.95 185.54Q377.39 184.20 379.79 184.20Q382.07 184.20 383.48 185.42Q384.88 186.65 384.95 188.76L382.79 188.76Q382.72 187.49 381.93 186.80Q381.14 186.12 379.79 186.12Q378.38 186.12 377.52 186.92Q376.67 187.73 376.67 189.22L376.67 192.84Q376.67 194.33 377.52 195.14Q378.38 195.96 379.79 195.96Q381.14 195.96 381.93 195.26Q382.72 194.57 382.79 193.32L384.95 193.32Q384.88 195.43 383.48 196.66Q382.07 197.88 379.79 197.88" fill="white" fill-opacity="0.7"/>
<path d="M394 197.88Q391.67 197.88 390.24 196.48Q388.82 195.07 388.82 192.60L388.82 189.48Q388.82 187.01 390.24 185.60Q391.67 184.20 394 184.20Q395.56 184.20 396.72 184.82Q397.89 185.45 398.54 186.58Q399.18 187.70 399.18 189.24L399.18 191.59L390.93 191.59L390.93 192.84Q390.93 194.30 391.77 195.16Q392.61 196.01 394 196.01Q395.20 196.01 395.98 195.54Q396.76 195.07 396.93 194.28L399.09 194.28Q398.87 195.94 397.48 196.91Q396.09 197.88 394 197.88M390.93 189.24L390.93 189.91L397.07 189.91L397.07 189.24Q397.07 187.68 396.27 186.83Q395.46 185.98 394 185.98Q392.54 185.98 391.73 186.83Q390.93 187.68 390.93 189.24" fill="white" fill-opacity="0.7"/>
<path d="M422.80 197.83Q420.42 197.83 419.02 196.44Q417.62 195.05 417.62 192.55L417.62 189.53Q417.62 187.01 419.01 185.63Q420.40 184.25 422.80 184.25Q425.20 184.25 426.59 185.63Q427.98 187.01 427.98 189.53L427.98 192.55Q427.98 195.05 426.58 196.44Q425.18 197.83 422.80 197.83M422.80 195.91Q424.22 195.91 425.02 195.12Q425.82 194.33 425.82 192.79L425.82 189.29Q425.82 187.75 425.02 186.96Q424.22 186.17 422.80 186.17Q421.41 186.17 420.59 186.96Q419.78 187.75 419.78 189.29L419.78 192.79Q419.78 194.33 420.59 195.12Q421.41 195.91 422.80 195.91" fill="white" fill-opacity="0.7"/>
<path d="M437.32 197.64L435.16 197.64L435.16 188.21L431.32 188.21L431.32 186.24L435.16 186.24L435.16 183.48Q435.16 181.92 436.14 181.02Q437.13 180.12 438.86 180.12L442.72 180.12L442.72 182.09L438.86 182.09Q437.32 182.09 437.32 183.48L437.32 186.24L442.72 186.24L442.72 188.21L437.32 188.21" fill="white" fill-opacity="0.7"/>
<path d="M451.72 197.64L449.56 197.64L449.56 188.21L445.72 188.21L445.72 186.24L449.56 186.24L449.56 183.48Q449.56 181.92 450.54 181.02Q451.53 180.12 453.26 180.12L457.12 180.12L457.12 182.09L453.26 182.09Q451.72 182.09 451.72 183.48L451.72 186.24L457.12 186.24L457.12 188.21L451.72 188.21" fill="white" fill-opacity="0.7"/>
<path d="M466 197.88Q463.67 197.88 462.24 196.48Q460.82 195.07 460.82 192.60L460.82 189.48Q460.82 187.01 462.24 185.60Q463.67 184.20 466 184.20Q467.56 184.20 468.72 184.82Q469.89 185.45 470.54 186.58Q471.18 187.70 471.18 189.24L471.18 191.59L462.93 191.59L462.93 192.84Q462.93 194.30 463.77 195.16Q464.61 196.01 466 196.01Q467.20 196.01 467.98 195.54Q468.76 195.07 468.93 194.28L471.09 194.28Q470.87 195.94 469.48 196.91Q468.09 197.88 466 197.88M462.93 189.24L462.93 189.91L469.07 189.91L469.07 189.24Q469.07 187.68 468.27 186.83Q467.46 185.98 466 185.98Q464.54 185.98 463.73 186.83Q462.93 187.68 462.93 189.24" fill="white" fill-opacity="0.7"/>
<path d="M478.05 197.64L475.89 197.64L475.89 184.44L478.05 184.44L478.05 186.96L478.10 186.96Q478.26 185.69 479.18 184.94Q480.09 184.20 481.62 184.20Q483.69 184.20 484.80 185.44Q485.92 186.67 485.92 188.95L485.92 190.08L483.76 190.08L483.76 188.95Q483.76 186.07 480.95 186.07Q479.54 186.07 478.79 186.89Q478.05 187.70 478.05 189.24" fill="white" fill-opacity="0.7"/>
<path d="M495.33 197.83L494.27 197.83Q492.06 197.83 490.85 196.84Q489.64 195.84 489.64 194.02L491.80 194.02Q491.80 194.93 492.45 195.44Q493.10 195.96 494.27 195.96L495.33 195.96Q496.53 195.96 497.19 195.43Q497.85 194.90 497.85 193.94Q497.85 192.24 496.29 192.02L492.64 191.50Q491.30 191.30 490.55 190.38Q489.81 189.46 489.81 187.94Q489.81 186.22 491 185.23Q492.18 184.25 494.27 184.25L495.33 184.25Q497.25 184.25 498.46 185.20Q499.67 186.14 499.77 187.68L497.58 187.68Q497.54 186.98 496.92 186.53Q496.31 186.07 495.33 186.07L494.27 186.07Q493.17 186.07 492.54 186.58Q491.92 187.08 491.92 187.94Q491.92 189.34 493.19 189.53L496.60 190.01Q499.96 190.49 499.96 193.94Q499.96 195.79 498.75 196.81Q497.54 197.83 495.33 197.83" fill="white" fill-opacity="0.7"/>
<path d="M529.60 197.64L525.52 197.64Q523.77 197.64 522.72 196.62Q521.68 195.60 521.68 193.92L521.68 182.09L517.12 182.09L517.12 180.12L523.84 180.12L523.84 193.92Q523.84 194.74 524.30 195.20Q524.75 195.67 525.52 195.67L529.60 195.67" fill="white" fill-opacity="0.7"/>
<path d="M544.12 197.64L532.84 197.64L532.84 195.67L537.52 195.67L537.52 186.41L533.32 186.41L533.32 184.44L539.68 184.44L539.68 195.67L544.12 195.67L544.12 197.64M538.36 182.06Q537.57 182.06 537.11 181.66Q536.66 181.25 536.66 180.55Q536.66 179.83 537.11 179.41Q537.57 178.99 538.36 178.99Q539.15 178.99 539.61 179.41Q540.06 179.83 540.06 180.55Q540.06 181.25 539.61 181.66Q539.15 182.06 538.36 182.06" fill="white" fill-opacity="0.7"/>
<path d="M552.52 197.64L550.36 197.64L550.36 188.21L546.52 188.21L546.52 186.24L550.36 186.24L550.36 183.48Q550.36 181.92 551.34 181.02Q552.33 180.12 554.06 180.12L557.92 180.12L557.92 182.09L554.06 182.09Q552.52 182.09 552.52 183.48L552.52 186.24L557.92 186.24L557.92 188.21L552.52 188.21" fill="white" fill-opacity="0.7"/>
<path d="M566.80 197.88Q564.47 197.88 563.04 196.48Q561.62 195.07 561.62 192.60L561.62 189.48Q561.62 187.01 563.04 185.60Q564.47 184.20 566.80 184.20Q568.36 184.20 569.52 184.82Q570.69 185.45 571.34 186.58Q571.98 187.70 571.98 189.24L571.98 191.59L563.73 191.59L563.73 192.84Q563.73 194.30 564.57 195.16Q565.41 196.01 566.80 196.01Q568 196.01 568.78 195.54Q569.56 195.07 569.73 194.28L571.89 194.28Q571.67 195.94 570.28 196.91Q568.89 197.88 566.80 197.88M563.73 189.24L563.73 189.91L569.87 189.91L569.87 189.24Q569.87 187.68 569.07 186.83Q568.26 185.98 566.80 185.98Q565.34 185.98 564.53 186.83Q563.73 187.68 563.73 189.24" fill="white" fill-opacity="0.7"/>
<path d="M601.72 197.64L590.44 197.64L590.44 195.67L595.12 195.67L595.12 186.41L590.92 186.41L590.92 184.44L597.28 184.44L597.28 195.67L601.72 195.67L601.72 197.64M595.96 182.06Q595.17 182.06 594.71 181.66Q594.26 181.25 594.26 180.55Q594.26 179.83 594.71 179.41Q595.17 178.99 595.96 178.99Q596.75 178.99 597.21 179.41Q597.66 179.83 597.66 180.55Q597.66 181.25 597.21 181.66Q596.75 182.06 595.96 182.06" fill="white" fill-opacity="0.7"/>
<path d="M607.17 197.64L605.01 197.64L605.01 184.44L607.17 184.44L607.17 186.96L607.19 186.96Q607.36 185.64 608.27 184.92Q609.18 184.20 610.70 184.20Q612.69 184.20 613.86 185.42Q615.04 186.65 615.04 188.76L615.04 197.64L612.88 197.64L612.88 189.14Q612.88 187.63 612.12 186.83Q611.37 186.02 610.07 186.02Q608.73 186.02 607.95 186.86Q607.17 187.70 607.17 189.24" fill="white" fill-opacity="0.7"/>
<path d="M624.93 197.83L623.87 197.83Q621.66 197.83 620.45 196.84Q619.24 195.84 619.24 194.02L621.40 194.02Q621.40 194.93 622.05 195.44Q622.70 195.96 623.87 195.96L624.93 195.96Q626.13 195.96 626.79 195.43Q627.45 194.90 627.45 193.94Q627.45 192.24 625.89 192.02L622.24 191.50Q620.90 191.30 620.15 190.38Q619.41 189.46 619.41 187.94Q619.41 186.22 620.60 185.23Q621.78 184.25 623.87 184.25L624.93 184.25Q626.85 184.25 628.06 185.20Q629.27 186.14 629.37 187.68L627.18 187.68Q627.14 186.98 626.52 186.53Q625.91 186.07 624.93 186.07L623.87 186.07Q622.77 186.07 622.14 186.58Q621.52 187.08 621.52 187.94Q621.52 189.34 622.79 189.53L626.20 190.01Q629.56 190.49 629.56 193.94Q629.56 195.79 628.35 196.81Q627.14 197.83 624.93 197.83" fill="white" fill-opacity="0.7"/>
<path d="M638.78 197.88Q636.50 197.88 635.13 196.52Q633.76 195.17 633.76 192.84L633.76 184.44L635.92 184.44L635.92 192.84Q635.92 194.28 636.69 195.13Q637.46 195.98 638.78 195.98Q640.12 195.98 640.90 195.13Q641.68 194.28 641.68 192.84L641.68 184.44L643.84 184.44L643.84 192.84Q643.84 195.17 642.45 196.52Q641.06 197.88 638.78 197.88" fill="white" fill-opacity="0.7"/>
<path d="M650.85 197.64L648.69 197.64L648.69 184.44L650.85 184.44L650.85 186.96L650.90 186.96Q651.06 185.69 651.98 184.94Q652.89 184.20 654.42 184.20Q656.49 184.20 657.60 185.44Q658.72 186.67 658.72 188.95L658.72 190.08L656.56 190.08L656.56 188.95Q656.56 186.07 653.75 186.07Q652.34 186.07 651.59 186.89Q650.85 187.70 650.85 189.24" fill="white" fill-opacity="0.7"/>
<path d="M666.45 197.88Q664.41 197.88 663.21 196.74Q662.01 195.60 662.01 193.75Q662.01 192.53 662.56 191.62Q663.11 190.70 664.10 190.19Q665.08 189.67 666.35 189.67L670.43 189.67L670.43 188.64Q670.43 186.07 667.62 186.07Q666.38 186.07 665.61 186.53Q664.84 186.98 664.79 187.80L662.63 187.80Q662.75 186.24 664.08 185.22Q665.42 184.20 667.62 184.20Q670.02 184.20 671.31 185.35Q672.59 186.50 672.59 188.57L672.59 197.64L670.46 197.64L670.46 195.24L670.41 195.24Q670.22 196.46 669.18 197.17Q668.15 197.88 666.45 197.88M666.98 196.06Q668.56 196.06 669.50 195.29Q670.43 194.52 670.43 193.20L670.43 191.35L666.59 191.35Q665.54 191.35 664.88 191.99Q664.22 192.62 664.22 193.68Q664.22 194.78 664.95 195.42Q665.68 196.06 666.98 196.06" fill="white" fill-opacity="0.7"/>
<path d="M679.17 197.64L677.01 197.64L677.01 184.44L679.17 184.44L679.17 186.96L679.19 186.96Q679.36 185.64 680.27 184.92Q681.18 184.20 682.70 184.20Q684.69 184.20 685.86 185.42Q687.04 186.65 687.04 188.76L687.04 197.64L684.88 197.64L684.88 189.14Q684.88 187.63 684.12 186.83Q683.37 186.02 682.07 186.02Q680.73 186.02 679.95 186.86Q679.17 187.70 679.17 189.24" fill="white" fill-opacity="0.7"/>
<path d="M696.59 197.88Q694.19 197.88 692.75 196.54Q691.31 195.19 691.31 192.84L691.31 189.24Q691.31 186.89 692.75 185.54Q694.19 184.20 696.59 184.20Q698.87 184.20 700.28 185.42Q701.68 186.65 701.75 188.76L699.59 188.76Q699.52 187.49 698.73 186.80Q697.94 186.12 696.59 186.12Q695.18 186.12 694.32 186.92Q693.47 187.73 693.47 189.22L693.47 192.84Q693.47 194.33 694.32 195.14Q695.18 195.96 696.59 195.96Q697.94 195.96 698.73 195.26Q699.52 194.57 699.59 193.32L701.75 193.32Q701.68 195.43 700.28 196.66Q698.87 197.88 696.59 197.88" fill="white" fill-opacity="0.7"/>
<path d="M710.80 197.88Q708.47 197.88 707.04 196.48Q705.62 195.07 705.62 192.60L705.62 189.48Q705.62 187.01 707.04 185.60Q708.47 184.20 710.80 184.20Q712.36 184.20 713.52 184.82Q714.69 185.45 715.34 186.58Q715.98 187.70 715.98 189.24L715.98 191.59L707.73 191.59L707.73 192.84Q707.73 194.30 708.57 195.16Q709.41 196.01 710.80 196.01Q712 196.01 712.78 195.54Q713.56 195.07 713.73 194.28L715.89 194.28Q715.67 195.94 714.28 196.91Q712.89 197.88 710.80 197.88M707.73 189.24L707.73 189.91L713.87 189.91L713.87 189.24Q713.87 187.68 713.07 186.83Q712.26 185.98 710.80 185.98Q709.34 185.98 708.53 186.83Q707.73 187.68 707.73 189.24" fill="white" fill-opacity="0.7"/>
<path d="M740.13 197.83L739.07 197.83Q736.86 197.83 735.65 196.84Q734.44 195.84 734.44 194.02L736.60 194.02Q736.60 194.93 737.25 195.44Q737.90 195.96 739.07 195.96L740.13 195.96Q741.33 195.96 741.99 195.43Q742.65 194.90 742.65 193.94Q742.65 192.24 741.09 192.02L737.44 191.50Q736.10 191.30 735.35 190.38Q734.61 189.46 734.61 187.94Q734.61 186.22 735.80 185.23Q736.98 184.25 739.07 184.25L740.13 184.25Q742.05 184.25 743.26 185.20Q744.47 186.14 744.57 187.68L742.38 187.68Q742.34 186.98 741.72 186.53Q741.11 186.07 740.13 186.07L739.07 186.07Q737.97 186.07 737.34 186.58Q736.72 187.08 736.72 187.94Q736.72 189.34 737.99 189.53L741.40 190.01Q744.76 190.49 744.76 193.94Q744.76 195.79 743.55 196.81Q742.34 197.83 740.13 197.83" fill="white" fill-opacity="0.7"/>
<path d="M754 197.83Q751.62 197.83 750.22 196.44Q748.82 195.05 748.82 192.55L748.82 189.53Q748.82 187.01 750.21 185.63Q751.60 184.25 754 184.25Q756.40 184.25 757.79 185.63Q759.18 187.01 759.18 189.53L759.18 192.55Q759.18 195.05 757.78 196.44Q756.38 197.83 754 197.83M754 195.91Q755.42 195.91 756.22 195.12Q757.02 194.33 757.02 192.79L757.02 189.29Q757.02 187.75 756.22 186.96Q755.42 186.17 754 186.17Q752.61 186.17 751.79 186.96Q750.98 187.75 750.98 189.29L750.98 192.79Q750.98 194.33 751.79 195.12Q752.61 195.91 754 195.91" fill="white" fill-opacity="0.7"/>
<path d="M774.40 197.64L770.32 197.64Q768.57 197.64 767.52 196.62Q766.48 195.60 766.48 193.92L766.48 182.09L761.92 182.09L761.92 180.12L768.64 180.12L768.64 193.92Q768.64 194.74 769.10 195.20Q769.55 195.67 770.32 195.67L774.40 195.67" fill="white" fill-opacity="0.7"/>
<path d="M782.78 197.88Q780.50 197.88 779.13 196.52Q777.76 195.17 777.76 192.84L777.76 184.44L779.92 184.44L779.92 192.84Q779.92 194.28 780.69 195.13Q781.46 195.98 782.78 195.98Q784.12 195.98 784.90 195.13Q785.68 194.28 785.68 192.84L785.68 184.44L787.84 184.44L787.84 192.84Q787.84 195.17 786.45 196.52Q785.06 197.88 782.78 197.88" fill="white" fill-opacity="0.7"/>
<path d="M802.36 197.64L798.52 197.64Q796.89 197.64 795.90 196.69Q794.92 195.74 794.92 194.16L794.92 186.41L791.13 186.41L791.13 184.44L794.92 184.44L794.92 180.72L797.08 180.72L797.08 184.44L802.48 184.44L802.48 186.41L797.08 186.41L797.08 194.16Q797.08 194.83 797.48 195.25Q797.87 195.67 798.52 195.67L802.36 195.67" fill="white" fill-opacity="0.7"/>
<path d="M817.72 197.64L806.44 197.64L806.44 195.67L811.12 195.67L811.12 186.41L806.92 186.41L806.92 184.44L813.28 184.44L813.28 195.67L817.72 195.67L817.72 197.64M811.96 182.06Q811.17 182.06 810.71 181.66Q810.26 181.25 810.26 180.55Q810.26 179.83 810.71 179.41Q811.17 178.99 811.96 178.99Q812.75 178.99 813.21 179.41Q813.66 179.83 813.66 180.55Q813.66 181.25 813.21 181.66Q812.75 182.06 811.96 182.06" fill="white" fill-opacity="0.7"/>
<path d="M826 197.83Q823.62 197.83 822.22 196.44Q820.82 195.05 820.82 192.55L820.82 189.53Q820.82 187.01 822.21 185.63Q823.60 184.25 826 184.25Q828.40 184.25 829.79 185.63Q831.18 187.01 831.18 189.53L831.18 192.55Q831.18 195.05 829.78 196.44Q828.38 197.83 826 197.83M826 195.91Q827.42 195.91 828.22 195.12Q829.02 194.33 829.02 192.79L829.02 189.29Q829.02 187.75 828.22 186.96Q827.42 186.17 826 186.17Q824.61 186.17 823.79 186.96Q822.98 187.75 822.98 189.29L822.98 192.79Q822.98 194.33 823.79 195.12Q824.61 195.91 826 195.91" fill="white" fill-opacity="0.7"/>
<path d="M837.57 197.64L835.41 197.64L835.41 184.44L837.57 184.44L837.57 186.96L837.59 186.96Q837.76 185.64 838.67 184.92Q839.58 184.20 841.10 184.20Q843.09 184.20 844.26 185.42Q845.44 186.65 845.44 188.76L845.44 197.64L843.28 197.64L843.28 189.14Q843.28 187.63 842.52 186.83Q841.77 186.02 840.47 186.02Q839.13 186.02 838.35 186.86Q837.57 187.70 837.57 189.24" fill="white" fill-opacity="0.7"/>
<path d="M855.33 197.83L854.27 197.83Q852.06 197.83 850.85 196.84Q849.64 195.84 849.64 194.02L851.80 194.02Q851.80 194.93 852.45 195.44Q853.10 195.96 854.27 195.96L855.33 195.96Q856.53 195.96 857.19 195.43Q857.85 194.90 857.85 193.94Q857.85 192.24 856.29 192.02L852.64 191.50Q851.30 191.30 850.55 190.38Q849.81 189.46 849.81 187.94Q849.81 186.22 851 185.23Q852.18 184.25 854.27 184.25L855.33 184.25Q857.25 184.25 858.46 185.20Q859.67 186.14 859.77 187.68L857.58 187.68Q857.54 186.98 856.92 186.53Q856.31 186.07 855.33 186.07L854.27 186.07Q853.17 186.07 852.54 186.58Q851.92 187.08 851.92 187.94Q851.92 189.34 853.19 189.53L856.60 190.01Q859.96 190.49 859.96 193.94Q859.96 195.79 858.75 196.81Q857.54 197.83 855.33 197.83" fill="white" fill-opacity="0.7"/>
<path d="M881.68 197.64L879.30 197.64L877.14 184.44L879.02 184.44L880.36 193.75Q880.43 194.28 880.50 194.92Q880.58 195.55 880.60 195.96Q880.65 195.55 880.71 194.92Q880.77 194.28 880.86 193.75L882.52 184.44L884.68 184.44L886.34 193.75Q886.43 194.28 886.52 194.92Q886.60 195.55 886.62 195.96Q886.67 195.55 886.74 194.92Q886.82 194.28 886.89 193.75L888.28 184.44L890.06 184.44L887.80 197.64L885.42 197.64L883.91 188.52Q883.82 187.85 883.73 187.09Q883.65 186.34 883.60 185.93Q883.58 186.34 883.48 187.09Q883.38 187.85 883.26 188.52" fill="white" fill-opacity="0.7"/>
<path d="M904.12 197.64L892.84 197.64L892.84 195.67L897.52 195.67L897.52 186.41L893.32 186.41L893.32 184.44L899.68 184.44L899.68 195.67L904.12 195.67L904.12 197.64M898.36 182.06Q897.57 182.06 897.11 181.66Q896.66 181.25 896.66 180.55Q896.66 179.83 897.11 179.41Q897.57 178.99 898.36 178.99Q899.15 178.99 899.61 179.41Q900.06 179.83 900.06 180.55Q900.06 181.25 899.61 181.66Q899.15 182.06 898.36 182.06" fill="white" fill-opacity="0.7"/>
<path d="M917.56 197.64L913.72 197.64Q912.09 197.64 911.10 196.69Q910.12 195.74 910.12 194.16L910.12 186.41L906.33 186.41L906.33 184.44L910.12 184.44L910.12 180.72L912.28 180.72L912.28 184.44L917.68 184.44L917.68 186.41L912.28 186.41L912.28 194.16Q912.28 194.83 912.68 195.25Q913.07 195.67 913.72 195.67L917.56 195.67" fill="white" fill-opacity="0.7"/>
<path d="M923.97 197.64L921.81 197.64L921.81 180.12L923.97 180.12L923.97 186.96L923.99 186.96Q924.16 185.64 925.07 184.92Q925.98 184.20 927.50 184.20Q929.49 184.20 930.66 185.42Q931.84 186.65 931.84 188.76L931.84 197.64L929.68 197.64L929.68 189.12Q929.68 187.63 928.92 186.83Q928.17 186.02 926.87 186.02Q925.53 186.02 924.75 186.86Q923.97 187.70 923.97 189.24" fill="white" fill-opacity="0.7"/>
<path d="M952.77 201.96L950.61 201.96L950.61 184.44L952.77 184.44L952.77 186.96L952.79 186.96Q952.96 185.66 953.92 184.93Q954.88 184.20 956.37 184.20Q958.36 184.20 959.54 185.51Q960.71 186.82 960.71 189.10L960.71 192.96Q960.71 195.24 959.54 196.56Q958.36 197.88 956.37 197.88Q954.88 197.88 953.92 197.14Q952.96 196.39 952.79 195.12L952.72 195.12L952.77 198.12L952.77 201.96M955.65 196.01Q957.02 196.01 957.78 195.29Q958.55 194.57 958.55 192.96L958.55 189.12Q958.55 187.49 957.78 186.78Q957.02 186.07 955.65 186.07Q954.33 186.07 953.55 186.91Q952.77 187.75 952.77 189.24L952.77 192.84Q952.77 194.33 953.55 195.17Q954.33 196.01 955.65 196.01" fill="white" fill-opacity="0.7"/>
<path d="M970 197.83Q967.62 197.83 966.22 196.44Q964.82 195.05 964.82 192.55L964.82 189.53Q964.82 187.01 966.21 185.63Q967.60 184.25 970 184.25Q972.40 184.25 973.79 185.63Q975.18 187.01 975.18 189.53L975.18 192.55Q975.18 195.05 973.78 196.44Q972.38 197.83 970 197.83M970 195.91Q971.42 195.91 972.22 195.12Q973.02 194.33 973.02 192.79L973.02 189.29Q973.02 187.75 972.22 186.96Q971.42 186.17 970 186.17Q968.61 186.17 967.79 186.96Q966.98 187.75 966.98 189.29L966.98 192.79Q966.98 194.33 967.79 195.12Q968.61 195.91 970 195.91" fill="white" fill-opacity="0.7"/>
<path d="M990.40 197.64L986.32 197.64Q984.57 197.64 983.52 196.62Q982.48 195.60 982.48 193.92L982.48 182.09L977.92 182.09L977.92 180.12L984.64 180.12L984.64 193.92Q984.64 194.74 985.10 195.20Q985.55 195.67 986.32 195.67L990.40 195.67" fill="white" fill-opacity="0.7"/>
<path d="M1004.92 197.64L993.64 197.64L993.64 195.67L998.32 195.67L998.32 186.41L994.12 186.41L994.12 184.44L1000.48 184.44L1000.48 195.67L1004.92 195.67L1004.92 197.64M999.16 182.06Q998.37 182.06 997.91 181.66Q997.46 181.25 997.46 180.55Q997.46 179.83 997.91 179.41Q998.37 178.99 999.16 178.99Q999.95 178.99 1000.41 179.41Q1000.86 179.83 1000.86 180.55Q1000.86 181.25 1000.41 181.66Q999.95 182.06 999.16 182.06" fill="white" fill-opacity="0.7"/>
<path d="M1013.39 197.88Q1010.99 197.88 1009.55 196.54Q1008.11 195.19 1008.11 192.84L1008.11 189.24Q1008.11 186.89 1009.55 185.54Q1010.99 184.20 1013.39 184.20Q1015.67 184.20 1017.08 185.42Q1018.48 186.65 1018.55 188.76L1016.39 188.76Q1016.32 187.49 1015.53 186.80Q1014.74 186.12 1013.39 186.12Q1011.98 186.12 1011.12 186.92Q1010.27 187.73 1010.27 189.22L1010.27 192.84Q1010.27 194.33 1011.12 195.14Q1011.98 195.96 1013.39 195.96Q1014.74 195.96 1015.53 195.26Q1016.32 194.57 1016.39 193.32L1018.55 193.32Q1018.48 195.43 1017.08 196.66Q1015.67 197.88 1013.39 197.88" fill="white" fill-opacity="0.7"/>
<path d="M1026.93 201.96L1024.67 201.96L1026.62 196.82L1021.70 184.44L1024.02 184.44L1027.14 192.60Q1027.34 193.08 1027.50 193.61Q1027.67 194.14 1027.74 194.52Q1027.82 194.14 1027.98 193.61Q1028.15 193.08 1028.32 192.60L1031.22 184.44L1033.50 184.44" fill="white" fill-opacity="0.7"/>
<path d="M1055.25 197.88Q1053.21 197.88 1052.01 196.74Q1050.81 195.60 1050.81 193.75Q1050.81 192.53 1051.36 191.62Q1051.91 190.70 1052.90 190.19Q1053.88 189.67 1055.15 189.67L1059.23 189.67L1059.23 188.64Q1059.23 186.07 1056.42 186.07Q1055.18 186.07 1054.41 186.53Q1053.64 186.98 1053.59 187.80L1051.43 187.80Q1051.55 186.24 1052.88 185.22Q1054.22 184.20 1056.42 184.20Q1058.82 184.20 1060.11 185.35Q1061.39 186.50 1061.39 188.57L1061.39 197.64L1059.26 197.64L1059.26 195.24L1059.21 195.24Q1059.02 196.46 1057.98 197.17Q1056.95 197.88 1055.25 197.88M1055.78 196.06Q1057.36 196.06 1058.30 195.29Q1059.23 194.52 1059.23 193.20L1059.23 191.35L1055.39 191.35Q1054.34 191.35 1053.68 191.99Q1053.02 192.62 1053.02 193.68Q1053.02 194.78 1053.75 195.42Q1054.48 196.06 1055.78 196.06" fill="white" fill-opacity="0.7"/>
<path d="M1067.97 197.64L1065.81 197.64L1065.81 184.44L1067.97 184.44L1067.97 186.96L1067.99 186.96Q1068.16 185.64 1069.07 184.92Q1069.98 184.20 1071.50 184.20Q1073.49 184.20 1074.66 185.42Q1075.84 186.65 1075.84 188.76L1075.84 197.64L1073.68 197.64L1073.68 189.14Q1073.68 187.63 1072.92 186.83Q1072.17 186.02 1070.87 186.02Q1069.53 186.02 1068.75 186.86Q1067.97 187.70 1067.97 189.24" fill="white" fill-opacity="0.7"/>
<path d="M1084.43 197.88Q1082.46 197.88 1081.28 196.56Q1080.09 195.24 1080.09 192.98L1080.09 189.12Q1080.09 186.84 1081.26 185.52Q1082.44 184.20 1084.43 184.20Q1085.92 184.20 1086.89 184.94Q1087.86 185.69 1088.06 186.96L1088.08 186.96L1088.03 183.96L1088.03 180.12L1090.19 180.12L1090.19 197.64L1088.03 197.64L1088.03 195.12L1088.01 195.12Q1087.84 196.42 1086.88 197.15Q1085.92 197.88 1084.43 197.88M1085.15 196.01Q1086.50 196.01 1087.26 195.17Q1088.03 194.33 1088.03 192.84L1088.03 189.24Q1088.03 187.75 1087.26 186.91Q1086.50 186.07 1085.15 186.07Q1083.78 186.07 1083.02 186.78Q1082.25 187.49 1082.25 189.12L1082.25 192.96Q1082.25 194.57 1083.02 195.29Q1083.78 196.01 1085.15 196.01" fill="white" fill-opacity="0.7"/>
<path d="M74.37 233.96L72.21 233.96L72.21 216.44L74.37 216.44L74.37 218.96L74.39 218.96Q74.56 217.66 75.52 216.93Q76.48 216.20 77.97 216.20Q79.96 216.20 81.14 217.51Q82.31 218.82 82.31 221.10L82.31 224.96Q82.31 227.24 81.14 228.56Q79.96 229.88 77.97 229.88Q76.48 229.88 75.52 229.14Q74.56 228.39 74.39 227.12L74.32 227.12L74.37 230.12L74.37 233.96M77.25 228.01Q78.62 228.01 79.38 227.29Q80.15 226.57 80.15 224.96L80.15 221.12Q80.15 219.49 79.38 218.78Q78.62 218.07 77.25 218.07Q75.93 218.07 75.15 218.91Q74.37 219.75 74.37 221.24L74.37 224.84Q74.37 226.33 75.15 227.17Q75.93 228.01 77.25 228.01" fill="white" fill-opacity="0.7"/>
<path d="M89.25 229.64L87.09 229.64L87.09 216.44L89.25 216.44L89.25 218.96L89.30 218.96Q89.46 217.69 90.38 216.94Q91.29 216.20 92.82 216.20Q94.89 216.20 96 217.44Q97.12 218.67 97.12 220.95L97.12 222.08L94.96 222.08L94.96 220.95Q94.96 218.07 92.15 218.07Q90.74 218.07 89.99 218.89Q89.25 219.70 89.25 221.24" fill="white" fill-opacity="0.7"/>
<path d="MNaN 229.88Q103.67 229.88 102.24 228.48Q100.82 227.07 100.82 224.60L100.82 221.48Q100.82 219.01 102.24 217.60Q103.67 216.20 NaN 216.20Q107.56 216.20 108.72 216.82Q109.89 217.45 110.54 218.58Q111.18 219.70 111.18 221.24L111.18 223.59L102.93 223.59L102.93 224.84Q102.93 226.30 103.77 227.16Q104.61 228.01 NaN 228.01Q107.20 228.01 107.98 227.54Q108.76 227.07 108.93 226.28L111.09 226.28Q110.87 227.94 109.48 228.91Q108.09 229.88 NaN 229.88M102.93 221.24L102.93 221.91L109.07 221.91L109.07 221.24Q109.07 219.68 108.27 218.83Q107.46 217.98 NaN 217.98Q104.54 217.98 103.73 218.83Q102.93 219.68 102.93 221.24" fill="white" fill-opacity="0.7"/>
<path d="M116.66 229.64L114.64 229.64L114.64 216.44L116.51 216.44L116.51 218.19L116.56 218.19Q116.68 217.30 117.27 216.75Q117.86 216.20 118.77 216.20Q119.63 216.20 120.23 216.70Q120.83 217.21 121.10 218.07L121.12 218.07Q121.29 217.21 121.88 216.70Q122.46 216.20 123.38 216.20Q124.65 216.20 125.40 217.15Q126.16 218.10 126.16 219.61L126.16 229.64L124.14 229.64L124.14 219.58Q124.14 218.79 123.76 218.32Q123.38 217.86 122.70 217.86Q122.06 217.86 121.67 218.31Q121.29 218.77 121.29 219.56L121.29 229.64L119.51 229.64L119.51 219.58Q119.51 218.79 119.13 218.32Q118.74 217.86 118.10 217.86Q117.42 217.86 117.04 218.31Q116.66 218.77 116.66 219.56" fill="white" fill-opacity="0.7"/>
<path d="M140.92 229.64L129.64 229.64L129.64 227.67L134.32 227.67L134.32 218.41L130.12 218.41L130.12 216.44L136.48 216.44L136.48 227.67L140.92 227.67L140.92 229.64M135.16 214.06Q134.37 214.06 133.91 213.66Q133.46 213.25 133.46 212.55Q133.46 211.83 133.91 211.41Q134.37 210.99 135.16 210.99Q135.95 210.99 136.41 211.41Q136.86 211.83 136.86 212.55Q136.86 213.25 136.41 213.66Q135.95 214.06 135.16 214.06" fill="white" fill-opacity="0.7"/>
<path d="M149.18 229.88Q146.90 229.88 145.53 228.52Q144.16 227.17 144.16 224.84L144.16 216.44L146.32 216.44L146.32 224.84Q146.32 226.28 147.09 227.13Q147.86 227.98 149.18 227.98Q150.52 227.98 151.30 227.13Q152.08 226.28 152.08 224.84L152.08 216.44L154.24 216.44L154.24 224.84Q154.24 227.17 152.85 228.52Q151.46 229.88 149.18 229.88" fill="white" fill-opacity="0.7"/>
<path d="M159.86 229.64L157.84 229.64L157.84 216.44L159.71 216.44L159.71 218.19L159.76 218.19Q159.88 217.30 160.47 216.75Q161.06 216.20 161.97 216.20Q162.83 216.20 163.43 216.70Q164.03 217.21 164.30 218.07L164.32 218.07Q164.49 217.21 165.08 216.70Q165.66 216.20 166.58 216.20Q167.85 216.20 168.60 217.15Q169.36 218.10 169.36 219.61L169.36 229.64L167.34 229.64L167.34 219.58Q167.34 218.79 166.96 218.32Q166.58 217.86 165.90 217.86Q165.26 217.86 164.87 218.31Q164.49 218.77 164.49 219.56L164.49 229.64L162.71 229.64L162.71 219.58Q162.71 218.79 162.33 218.32Q161.94 217.86 161.30 217.86Q160.62 217.86 160.24 218.31Q159.86 218.77 159.86 219.56" fill="white" fill-opacity="0.7"/>
<path d="M191.25 229.88Q189.21 229.88 188.01 228.74Q186.81 227.60 186.81 225.75Q186.81 224.53 187.36 223.62Q187.91 222.70 188.90 222.19Q189.88 221.67 191.15 221.67L195.23 221.67L195.23 220.64Q195.23 218.07 192.42 218.07Q191.18 218.07 190.41 218.53Q189.64 218.98 189.59 219.80L187.43 219.80Q187.55 218.24 188.88 217.22Q190.22 216.20 192.42 216.20Q194.82 216.20 196.11 217.35Q197.39 218.50 197.39 220.57L197.39 229.64L195.26 229.64L195.26 227.24L195.21 227.24Q195.02 228.46 193.98 229.17Q192.95 229.88 191.25 229.88M191.78 228.06Q193.36 228.06 194.30 227.29Q195.23 226.52 195.23 225.20L195.23 223.35L191.39 223.35Q190.34 223.35 189.68 223.99Q189.02 224.62 189.02 225.68Q189.02 226.78 189.75 227.42Q190.48 228.06 191.78 228.06" fill="white" fill-opacity="0.7"/>
<path d="M206.99 229.88Q204.59 229.88 203.15 228.54Q201.71 227.19 201.71 224.84L201.71 221.24Q201.71 218.89 203.15 217.54Q204.59 216.20 206.99 216.20Q209.27 216.20 210.68 217.42Q212.08 218.65 212.15 220.76L209.99 220.76Q209.92 219.49 209.13 218.80Q208.34 218.12 206.99 218.12Q205.58 218.12 204.72 218.92Q203.87 219.73 203.87 221.22L203.87 224.84Q203.87 226.33 204.72 227.14Q205.58 227.96 206.99 227.96Q208.34 227.96 209.13 227.26Q209.92 226.57 209.99 225.32L212.15 225.32Q212.08 227.43 210.68 228.66Q209.27 229.88 206.99 229.88" fill="white" fill-opacity="0.7"/>
<path d="M221.39 229.88Q218.99 229.88 217.55 228.54Q216.11 227.19 216.11 224.84L216.11 221.24Q216.11 218.89 217.55 217.54Q218.99 216.20 221.39 216.20Q223.67 216.20 225.08 217.42Q226.48 218.65 226.55 220.76L224.39 220.76Q224.32 219.49 223.53 218.80Q222.74 218.12 221.39 218.12Q219.98 218.12 219.12 218.92Q218.27 219.73 218.27 221.22L218.27 224.84Q218.27 226.33 219.12 227.14Q219.98 227.96 221.39 227.96Q222.74 227.96 223.53 227.26Q224.32 226.57 224.39 225.32L226.55 225.32Q226.48 227.43 225.08 228.66Q223.67 229.88 221.39 229.88" fill="white" fill-opacity="0.7"/>
<path d="M235.60 229.88Q233.27 229.88 231.84 228.48Q230.42 227.07 230.42 224.60L230.42 221.48Q230.42 219.01 231.84 217.60Q233.27 216.20 235.60 216.20Q237.16 216.20 238.32 216.82Q239.49 217.45 240.14 218.58Q240.78 219.70 240.78 221.24L240.78 223.59L232.53 223.59L232.53 224.84Q232.53 226.30 233.37 227.16Q234.21 228.01 235.60 228.01Q236.80 228.01 237.58 227.54Q238.36 227.07 238.53 226.28L240.69 226.28Q240.47 227.94 239.08 228.91Q237.69 229.88 235.60 229.88M232.53 221.24L232.53 221.91L238.67 221.91L238.67 221.24Q238.67 219.68 237.87 218.83Q237.06 217.98 235.60 217.98Q234.14 217.98 233.33 218.83Q232.53 219.68 232.53 221.24" fill="white" fill-opacity="0.7"/>
<path d="M250.53 229.83L249.47 229.83Q247.26 229.83 246.05 228.84Q244.84 227.84 244.84 226.02LNaN 226.02QNaN 226.93 247.65 227.44Q248.30 227.96 249.47 227.96L250.53 227.96Q251.73 227.96 252.39 227.43Q253.05 226.90 253.05 225.94Q253.05 224.24 251.49 224.02L247.84 223.50Q246.50 223.30 245.75 222.38Q245.01 221.46 245.01 219.94Q245.01 218.22 246.20 217.23Q247.38 216.25 249.47 216.25L250.53 216.25Q252.45 216.25 253.66 217.20Q254.87 218.14 254.97 219.68L252.78 219.68Q252.74 218.98 252.12 218.53Q251.51 218.07 250.53 218.07L249.47 218.07Q248.37 218.07 247.74 218.58Q247.12 219.08 247.12 219.94Q247.12 221.34 248.39 221.53L251.80 222.01Q255.16 222.49 255.16 225.94Q255.16 227.79 253.95 228.81Q252.74 229.83 250.53 229.83" fill="white" fill-opacity="0.7"/>
<path d="M264.93 229.83L263.87 229.83Q261.66 229.83 260.45 228.84Q259.24 227.84 259.24 226.02L261.40 226.02Q261.40 226.93 262.05 227.44Q262.70 227.96 263.87 227.96L264.93 227.96Q266.13 227.96 266.79 227.43Q267.45 226.90 267.45 225.94Q267.45 224.24 265.89 224.02L262.24 223.50Q260.90 223.30 260.15 222.38Q259.41 221.46 259.41 219.94Q259.41 218.22 260.60 217.23Q261.78 216.25 263.87 216.25L264.93 216.25Q266.85 216.25 268.06 217.20Q269.27 218.14 269.37 219.68L267.18 219.68Q267.14 218.98 266.52 218.53Q265.91 218.07 264.93 218.07L263.87 218.07Q262.77 218.07 262.14 218.58Q261.52 219.08 261.52 219.94Q261.52 221.34 262.79 221.53L266.20 222.01Q269.56 222.49 269.56 225.94Q269.56 227.79 268.35 228.81Q267.14 229.83 264.93 229.83" fill="white" fill-opacity="0.7"/>
<path d="M278.80 229.88Q277.91 229.88 277.37 229.35Q276.83 228.82 276.83 227.98Q276.83 227.10 277.37 226.54Q277.91 225.99 278.80 225.99Q279.69 225.99 280.23 226.54Q280.77 227.10 280.77 227.98Q280.77 228.82 280.23 229.35Q279.69 229.88 278.80 229.88" fill="white" fill-opacity="0.7"/>
<path d="M76.11 136.06L66.42 136.06L84.56 65.98L97.14 65.98L115.18 136.06L105.49 136.06L101.07 117.82L80.53 117.82L76.11 136.06M87.54 88.92L82.45 109.95L99.15 109.95L94.16 89.02Q92.72 83.26 91.86 79.23Q90.99 75.20 90.80 73.76Q90.61 75.20 89.74 79.23Q88.88 83.26 87.54 88.92M137.55 136.06L128.05 136.06L128.05 65.98L150.80 65.98Q157.52 65.98 162.42 68.57Q167.31 71.16 170 75.82Q172.69 80.48 172.69 86.91Q172.69 93.24 170 97.90Q167.31 102.56 162.37 105.15Q157.42 107.74 150.80 107.74L137.55 107.74L137.55 136.06M137.55 74.43L137.55 99.29L150.80 99.29Q156.37 99.29 159.63 95.88Q162.90 92.48 162.90 86.91Q162.90 81.24 159.63 77.84Q156.37 74.43 150.80 74.43L137.55 74.43M225.10 136.06L186.90 136.06L186.90 127.42L201.20 127.42L201.20 74.62L186.90 74.62L186.90 65.98L225.10 65.98L225.10 74.62L210.80 74.62L210.80 127.42L225.10 127.42L225.10 136.06M263.98 137.02Q253.62 137.02 247.47 131.60Q241.33 126.17 241.33 116.67L250.83 116.67Q250.83 122.24 254.38 125.40Q257.94 128.57 263.98 128.57Q269.74 128.57 273.15 125.36Q276.56 122.14 276.56 116.76Q276.56 112.73 274.35 109.71Q272.14 106.68 268.11 105.63L257.74 102.84Q250.93 100.92 246.94 95.88Q242.96 90.84 242.96 83.93Q242.96 78.27 245.50 74Q248.05 69.72 252.66 67.37Q257.26 65.02 263.31 65.02Q269.46 65.02 274.11 67.37Q278.77 69.72 281.36 73.95Q283.95 78.17 283.95 83.74L274.54 83.74Q274.54 79.13 271.42 76.25Q268.30 73.37 263.31 73.37Q258.32 73.37 255.30 76.25Q252.27 79.13 252.27 83.74Q252.27 87.48 254.29 90.03Q256.30 92.57 259.95 93.63L270.61 96.51Q277.81 98.43 281.84 103.85Q285.87 109.28 285.87 116.76Q285.87 122.91 283.18 127.47Q280.50 132.03 275.55 134.52Q270.61 137.02 263.98 137.02M342.51 136.06L301.71 136.06L301.71 65.98L342.51 65.98L342.51 74.52L311.12 74.52L311.12 95.36L339.15 95.36L339.15 103.61L311.12 103.61L311.12 127.52L342.51 127.52L342.51 136.06M383.60 136.06L374.10 136.06L374.10 74.62L355.09 74.62L355.09 65.98L402.51 65.98L402.51 74.62L383.60 74.62L383.60 136.06M436.40 137.02Q426.51 137.02 421.18 131.55Q415.86 126.08 415.86 116.67L415.86 65.98L425.36 65.98L425.36 116.67Q425.36 122.24 428.10 125.40Q430.83 128.57 436.40 128.57Q441.87 128.57 444.70 125.40Q447.54 122.24 447.54 116.67L447.54 65.98L457.04 65.98L457.04 116.67Q457.04 126.17 451.71 131.60Q446.38 137.02 436.40 137.02M551.98 137.02Q542.29 137.02 536.58 131.60Q530.86 126.17 530.86 116.67L530.86 85.28Q530.86 75.87 536.58 70.44Q542.29 65.02 551.98 65.02Q561.58 65.02 567.30 70.49Q573.01 75.96 573.01 85.28L563.50 85.28Q563.50 79.61 560.43 76.54Q557.36 73.47 551.98 73.47Q546.51 73.47 543.44 76.54Q540.37 79.61 540.37 85.28L540.37 116.67Q540.37 122.43 543.44 125.50Q546.51 128.57 551.98 128.57Q557.36 128.57 560.43 125.50Q563.50 122.43 563.50 116.67L563.50 107.55L549.87 107.55L549.87 99.10L573.01 99.10L573.01 116.67Q573.01 126.08 567.30 131.55Q561.58 137.02 551.98 137.02M609.20 137.02Q599.60 137.02 594.03 131.45Q588.46 125.88 588.46 115.71L588.46 86.24Q588.46 76.16 594.03 70.59Q599.60 65.02 609.20 65.02Q618.80 65.02 624.37 70.54Q629.94 76.06 629.94 86.24L629.94 115.71Q629.94 125.88 624.37 131.45Q618.80 137.02 609.20 137.02M609.20 128.57Q614.58 128.57 617.50 125.50Q620.43 122.43 620.43 116.67L620.43 85.28Q620.43 79.61 617.55 76.54Q614.67 73.47 609.20 73.47Q603.73 73.47 600.85 76.54Q597.97 79.61 597.97 85.28L597.97 116.67Q597.97 122.43 600.90 125.50Q603.82 128.57 609.20 128.57M673.14 136.06L660.37 136.06L642.42 65.98L652.21 65.98L663.82 113.21Q664.98 117.72 665.79 121.90Q666.61 126.08 666.99 128.28Q667.28 126.08 668.19 121.85Q669.10 117.63 670.16 113.12L681.39 65.98L691.18 65.98L673.14 136.06M786.80 136.06L777.30 136.06L777.30 74.62L758.29 74.62L758.29 65.98L805.71 65.98L805.71 74.62L786.80 74.62L786.80 136.06M824.91 136.06L815.22 136.06L833.36 65.98L845.94 65.98L863.98 136.06L854.29 136.06L849.87 117.82L829.33 117.82L824.91 136.06M836.34 88.92L831.25 109.95L847.95 109.95L842.96 89.02Q841.52 83.26 840.66 79.23Q839.79 75.20 839.60 73.76Q839.41 75.20 838.54 79.23Q837.68 83.26 836.34 88.92MNaN 136.06L892.50 136.06L892.50 74.62L873.49 74.62L873.49 65.98L920.91 65.98L920.91 74.62LNaN 74.62LNaN 136.06M940.11 136.06L930.42 136.06L948.56 65.98L961.14 65.98L979.18 136.06L969.49 136.06L965.07 117.82L944.53 117.82L940.11 136.06M951.54 88.92L946.45 109.95L963.15 109.95L958.16 89.02Q956.72 83.26 955.86 79.23Q954.99 75.20 954.80 73.76Q954.61 75.20 953.74 79.23Q952.88 83.26 951.54 88.92M997.71 136.06L988.02 136.06L1006.16 65.98L1018.74 65.98L1036.78 136.06L1027.09 136.06L1022.67 117.82L1002.13 117.82L997.71 136.06M1009.14 88.92L1004.05 109.95L1020.75 109.95L1015.76 89.02Q1014.32 83.26 1013.46 79.23Q1012.59 75.20 1012.40 73.76Q1012.21 75.20 1011.34 79.23Q1010.48 83.26 1009.14 88.92M1089.10 136.06L1050.90 136.06L1050.90 127.42L1065.20 127.42L1065.20 74.62L1050.90 74.62L1050.90 65.98L1089.10 65.98L1089.10 74.62L1074.80 74.62L1074.80 127.42L1089.10 127.42L1089.10 136.06M1112.91 136.06L1103.22 136.06L1121.36 65.98L1133.94 65.98L1151.98 136.06L1142.29 136.06L1137.87 117.82L1117.33 117.82L1112.91 136.06M1124.34 88.92L1119.25 109.95L1135.95 109.95L1130.96 89.02Q1129.52 83.26 1128.66 79.23Q1127.79 75.20 1127.60 73.76Q1127.41 75.20 1126.54 79.23Q1125.68 83.26 1124.34 88.92" fill="url(#paint2_linear_0_1)"/>
<g id="Group 1">
<rect id="Rectangle 1" x="26" y="168" width="12" height="184" rx="5" fill="url(#paint3_linear_0_1)" fill-opacity="0.9"/>
</g>
<g id="Group 1_2">
<rect id="Rectangle 2" x="26" y="38" width="12" height="119" rx="5" fill="url(#paint4_linear_0_1)" fill-opacity="0.9"/>
</g>
<ellipse id="Ellipse 1" cx="148.5" cy="573" rx="215.5" ry="214" fill="url(#paint5_linear_0_1)" fill-opacity="0.4"/>
<rect id="Rectangle 3" x="1229" y="48" width="300" height="300" rx="25" fill="#FFFBFB" fill-opacity="0.9"/>
<g id="placeholder-logo"><g transform="translate(1229,48) translate(0.0,60.0) scale(1.2000)"><g fill="#666666">
  <path d="m88.05,27.65c-3.15,4 -3.2,51.2 -0.05,54.35c2.75,2.75 71.7,3.15 74.45,0.45c2.85,-2.9 2.3,-53.85 -0.65,-55.9c-1.95,-1.35 -7.15,-1.55 -36.95,-1.55l-34.7,0l-2.1,2.65zm69.45,3.35c0.65,0 1,8.6 1,23.75l0,23.75l-33,0l-33,0l-0.25,-23c-0.15,-12.6 -0.1,-23.45 0.15,-24.1c0.35,-0.85 8.9,-1.05 32.25,-0.75c17.55,0.2 32.3,0.35 32.85,0.35z"/>
  <path d="m99.15,37.3c-6.85,7.35 4.25,17.35 11.4,10.25c1.35,-1.35 2.45,-3.65 2.45,-5.05c0,-6.45 -9.35,-9.95 -13.85,-5.2z"/>
  <path d="m135,42.5c-0.7,0.85 -5.25,5.15 -10.1,9.6l-8.85,8.1l-3.2,-3.2l-3.15,-3.15l-6.35,6.3c-5.55,5.5 -6.35,6.75 -6.35,10.05l0,3.8l28.5,0l28.5,0l0,-8.6l0,-8.55l-8.15,-7.7c-9.35,-8.85 -9.15,-8.7 -10.85,-6.65zm7.25,15.2c0.95,0.9 1.75,2.9 1.75,4.45c6.35,-5.05 4.75,-7.15 4.9,-11.55c0.95,0 0,0 0,0l-6.65,7.1z"/>
  <path d="m53.65,110.75c0.1,4.8 0.45,8.65 0.75,8.5c0.35,-0.15 1.3,-0.25 2.1,-0.25c1.1,0 1.5,-1.2 1.5,-4.75l0,-4.75l3.25,5c4.9,7.5 6.2,6.75 6.55,-3.75c0.25,-8.15 0.15,-8.75 -1.7,-8.75c-1.65,0 -2.05,0.8 -2.3,4.75l-0.3,4.75l-2.8,-4.75c-4.85,-8.25 -7.25,-6.9 -7.05,4z"/>
  <path d="m91,108.9c0,9.65 0.3,10.1 6.1,10.1c5.8,0 7.15,-2.65 1.65,-3.2l-3.25,-0.3l-0.3,-6.75c-0.25,-5.95 -0.55,-6.75 -2.25,-6.75c-1.75,0 -1.95,0.7 -1.95,6.9z"/>
  <path d="m151,102.45c0,0.25 1,2.15 2.25,4.2c1.2,2.1 2.45,5.8 2.75,8.25c0.65,5.9 4,6.95 4,1.25c0.05,-2.1 1.25,-5.85 2.95,-8.9l2.9,-5.25l-2.5,0c-1.8,0 -2.8,0.85 -3.75,3.1l-1.3,3.05l-1.25,-3.05c-1.1,-2.6 -6.05,-4.8 -6.05,-2.65z"/>
  <path d="m191,107.45c0,9.05 3.4,8.85 4.25,-0.2c0.45,-5 0.35,-5.25 -1.9,-5.25c-2.2,0 -2.35,0.4 -2.35,5.45z"/>
  <path d="m180.8,104.75c-1.3,5.35 0.65,13.6 3.45,14.35c2.3,0.6 2.75,0.4 2.75,-1.2c0,-1.05 -0.45,-1.9 -1,-1.9c-0.55,0 -1,-1.6 -1,-3.5c0,-1.95 0.45,-3.5 1,-3.5c0.55,0 1,-0.7 1,-1.5c0,-0.85 -0.45,-1.5 -1,-1.5c-0.55,0 -1,-0.7 -1,-1.5c0,-2.1 -3.65,-1.9 -4.2,0.25z"/>
  <path d="m71.55,106.55c-2.2,2.25 -2.05,9.7 0.3,11.8c4.5,4.1 10.15,0.75 10.15,-6.1c0,-4.85 -2,-7.25 -6,-7.25c-1.55,0 -3.55,0.7 -4.45,1.55zm6.25,5.8c0.25,3.05 0,3.65 -1.6,3.65c-2.3,0 -3.25,-2.65 -2.05,-5.85c1.25,-3.35 3.3,-2.1 3.65,2.2z"/>
  <path d="m105.75,106.1c-2.5,1.45 -2.45,9.95 0.1,12.25c4.3,3.9 10.15,0.35 10.15,-6.2c0,-6 -5.15,-9.05 -10.25,-6.05zm6.05,6.25c0.25,3.05 0,3.65 -1.6,3.65c-2.3,0 -3.25,-2.65 -2.05,-5.85c1.25,-3.35 3.3,-2.1 3.65,2.2z"/>
  <path d="m119.2,106.2c-3.8,3.8 -0.4,12.55 4.4,11.35c1.9,-0.45 2.45,-0.3 2.15,0.65c-0.25,0.7 -1.55,1.2 -2.85,1.1c-4.05,-0.3 -5.35,0.45 -3.85,2.25c0.85,1.05 2.6,1.45 5.35,1.25l4.1,-0.3l0.3,-8.75l0.3,-8.75l-4.35,0c-2.4,0 -4.9,0.55 -5.55,1.2zm6.6,4.45c0.4,2.85 -2.15,4.85 -3.75,2.95c-0.9,-1.1 -0.9,-2 -0.05,-3.6c1.35,-2.5 3.4,-2.15 3.8,0.65z"/>
  <path d="m133.55,106.55c-2.2,2.25 -2.05,9.7 0.3,11.8c4.5,4.1 10.15,0.75 10.15,-6.1c0,-4.85 -2,-7.25 -6,-7.25c-1.55,0 -3.55,0.7 -4.45,1.55zm6.25,5.8c0.25,3.05 0,3.65 -1.6,3.65c-2.3,0 -3.25,-2.65 -2.05,-5.85c1.25,-3.35 3.3,-2.1 3.65,2.2z"/>
  <path d="m167.65,106.85c-3.9,4.3 -0.75,13.15 4.7,13.15c2.4,0 5.65,-2.75 5.65,-4.85c0,-1.4 -2.65,-1.55 -3.5,-0.15c-0.95,1.55 -4.5,1.15 -4.5,-0.5c0,-1.1 1.1,-1.5 4,-1.5c3.15,0 4,-0.35 4,-1.8c0,-5.3 -6.85,-8.25 -10.35,-4.35z"/>
  <path d="m191,117.5c0,2.15 0.4,2.6 2.25,2.3c1.5,-0.2 2.25,-1 2.25,-2.3c0,-1.3 -0.75,-2.1 -2.25,-2.3c-1.85,-0.3 -2.25,0.15 -2.25,2.3z"/>
 </g></g></g>
</g>
<defs>
<linearGradient id="paint0_linear_0_1" x1="0" y1="198" x2="1584" y2="198" gradientUnits="userSpaceOnUse">
<stop stop-color="#3D052C"/>
<stop offset="1"/>
</linearGradient>
<linearGradient id="paint1_linear_0_1" x1="323" y1="-224" x2="323" y2="352" gradientUnits="userSpaceOnUse">
<stop stop-color="#28F6F2" stop-opacity="0.4"/>
<stop offset="1" stop-color="#17908E" stop-opacity="0.7"/>
</linearGradient>
<linearGradient id="paint2_linear_0_1" x1="148.5" y1="38" x2="148.5" y2="140" gradientUnits="userSpaceOnUse">
<stop stop-color="white"/>
<stop offset="1" stop-color="#999999"/>
</linearGradient>
<linearGradient id="paint3_linear_0_1" x1="38" y1="260" x2="26" y2="260" gradientUnits="userSpaceOnUse">
<stop stop-color="#D9D9D9"/>
<stop offset="1" stop-color="#737373"/>
</linearGradient>
<linearGradient id="paint4_linear_0_1" x1="38" y1="97.5" x2="26" y2="97.5" gradientUnits="userSpaceOnUse">
<stop stop-color="#D9D9D9"/>
<stop offset="1" stop-color="#737373"/>
</linearGradient>
<linearGradient id="paint5_linear_0_1" x1="27.5" y1="434.5" x2="148.5" y2="787" gradientUnits="userSpaceOnUse">
<stop stop-color="#2E21BC"/>
<stop offset="1" stop-color="#150F56"/>
</linearGradient>
<clipPath id="clip0_0_1">
<rect width="1584" height="396" fill="white"/>
</clipPath>
</defs>
</svg>
